<svg width="601" height="118" viewBox="0 0 601 118" fill="none" xmlns="http://www.w3.org/2000/svg">
<path d="M142.5 47.0999H154.7C165 47.0999 172.1 54.0999 172.1 63.2999V63.3999C172.1 72.5999 165 79.7999 154.7 79.7999H142.5V47.0999ZM154.6 74.4999C161.5 74.4999 165.9 69.8999 165.9 63.4999V63.3999C165.9 56.9999 161.5 52.2999 154.6 52.2999H148.2V74.4999C148.2 74.4999 154.6 74.4999 154.6 74.4999ZM182.7 79.7999H188.4V47.0999H182.7V79.7999ZM199.7 63.4999C199.7 72.9999 206.5 80.2999 216.7 80.2999C221.7 80.2999 226.6 78.4999 230.3 75.1999V61.4999H216.4V66.4999H224.7V72.5999C222.4 74.1999 219.7 75.0999 216.9 75.0999H216.8C210.2 75.0999 205.7 70.1999 205.7 63.3999V63.2999C205.7 56.9999 210.3 51.7999 216.3 51.7999H216.7C220.1 51.7999 223.2 53.0999 225.5 55.2999L229.1 50.9999C225.7 47.8999 221.1 46.2999 216.5 46.5999H216.3C207.1 46.5999 199.7 54.0999 199.7 63.2999C199.7 63.3999 199.7 63.4999 199.7 63.5999V63.4999ZM243.4 79.6999H249.1V46.9999H243.4V79.6999ZM270.5 79.6999H276.2V52.3999H286.6V47.0999H260.1V52.3999H270.5V79.6999ZM304.2 46.7999H309.5L323.9 79.6999H317.9L314.6 71.7999H299L295.6 79.6999H289.7L304.2 46.7999ZM312.4 66.6999L306.8 53.5999L301.2 66.6999H312.4ZM334.1 79.6999H357V74.4999H339.9V46.9999H334.2L334.1 79.6999ZM387.6 46.9999H402.1C405.6 46.7999 409 47.9999 411.6 50.2999C413.3 52.0999 414.3 54.3999 414.3 57.0999V57.3999V57.5999C414.3 62.9999 411.1 66.1999 406.5 67.4999L415.3 79.8999H408.5L400.5 68.3999H393.3V79.7999H387.6V46.9999ZM401.7 63.1999C405.8 63.1999 408.5 61.0999 408.5 57.7999V57.6999C408.5 54.1999 406 52.2999 401.7 52.2999H393.4V63.2999L401.7 63.1999ZM425.1 79.7999H449.6V74.6999H430.9V65.8999H447.3V60.7999H430.9V52.2999H449.4V47.1999H425.2L425.1 79.7999ZM472.5 46.7999H477.8L492.2 79.6999H486.1L482.8 71.7999H467.3L463.9 79.6999H458L472.5 46.7999ZM480.7 66.7999L475.1 53.6999L469.5 66.7999H480.7ZM501.8 79.7999H524.7V74.5999H507.5V46.9999H501.8V79.7999ZM540.2 79.7999H546V52.3999H556.4V46.9999H529.9V52.2999H540.3V79.7999H540.2ZM581.5 79.7999H587.3V66.7999L600.3 47.0999H593.7L584.4 61.5999L575.3 47.0999H568.5L581.5 66.8999V79.7999Z" fill="#808080"/>
<path d="M89.8 17.2V26.8L96.8 28.9V38.6L89.8 37.2V28.8L82.8 27.1V14.3L61.7 6.09998V25.5L54.7 23.8V3.29996L47.7 0.599976V117.2L54.7 114.3V99.4L61.7 97.3V111.5L103.8 94.3V22.5L89.8 17.2ZM68.7 20.7L75.7 22.8V34.4L68.7 33V20.7ZM54.7 36.9L61.7 37.9V49.6L54.7 49.2V36.9ZM61.7 84.6L54.7 86V73.3L61.7 72.5V84.6ZM75.8 86.5L68.8 88.2V65.9L61.8 66.4V55.6L68.8 55.7V65.9L75.8 65.4V86.5ZM75.8 44.8L82.8 45.6V56L75.8 55.9V44.8ZM89.8 88.9L82.8 91V80.2L89.8 78.8V88.9ZM96.9 77.4L89.9 78.8V50.5L96.9 51V77.4Z" fill="#808080"/>
<path d="M0.299988 23.1001V93.8L41.3 115.4V1.80005L0.299988 23.1001Z" fill="#808080"/>
</svg>
