<svg width="430" height="87" viewBox="0 0 430 87" fill="none" xmlns="http://www.w3.org/2000/svg">
<rect width="6.09917" height="61.0793" transform="matrix(0.680836 -0.732436 0.668974 0.743286 74.9869 23.5074)" fill="#79BBF2"/>
<rect width="6.09917" height="61.0793" transform="matrix(0.680836 -0.732436 0.668974 0.743286 37.7021 23.6006)" fill="#79BBF2"/>
<rect width="6.10868" height="60.9843" transform="matrix(-0.667964 -0.744194 0.681833 -0.731508 41.9 68.1965)" fill="#79BBF2"/>
<rect width="6.41313" height="60.9843" transform="matrix(-0.667964 -0.744194 0.681833 -0.731508 4.28381 68.3831)" fill="#79BBF2"/>
<path d="M156.328 64.406C153.351 64.406 150.683 63.9227 148.324 62.956C145.965 61.9893 144.071 60.5587 142.64 58.664C141.248 56.7693 140.513 54.488 140.436 51.82H150.992C151.147 53.328 151.669 54.488 152.558 55.3C153.447 56.0733 154.607 56.46 156.038 56.46C157.507 56.46 158.667 56.1313 159.518 55.474C160.369 54.778 160.794 53.8307 160.794 52.632C160.794 51.6267 160.446 50.7953 159.75 50.138C159.093 49.4807 158.261 48.9393 157.256 48.514C156.289 48.0887 154.897 47.6053 153.08 47.064C150.451 46.252 148.305 45.44 146.642 44.628C144.979 43.816 143.549 42.6173 142.35 41.032C141.151 39.4467 140.552 37.378 140.552 34.826C140.552 31.0367 141.925 28.0787 144.67 25.952C147.415 23.7867 150.992 22.704 155.4 22.704C159.885 22.704 163.501 23.7867 166.246 25.952C168.991 28.0787 170.461 31.056 170.654 34.884H159.924C159.847 33.5693 159.363 32.5447 158.474 31.81C157.585 31.0367 156.444 30.65 155.052 30.65C153.853 30.65 152.887 30.9787 152.152 31.636C151.417 32.2547 151.05 33.1633 151.05 34.362C151.05 35.6767 151.669 36.7013 152.906 37.436C154.143 38.1707 156.077 38.9633 158.706 39.814C161.335 40.7033 163.462 41.554 165.086 42.366C166.749 43.178 168.179 44.3573 169.378 45.904C170.577 47.4507 171.176 49.442 171.176 51.878C171.176 54.198 170.577 56.3053 169.378 58.2C168.218 60.0947 166.517 61.6027 164.274 62.724C162.031 63.8453 159.383 64.406 156.328 64.406ZM207.788 47.296C207.788 48.224 207.73 49.1907 207.614 50.196H185.168C185.322 52.2067 185.96 53.7533 187.082 54.836C188.242 55.88 189.653 56.402 191.316 56.402C193.79 56.402 195.511 55.358 196.478 53.27H207.034C206.492 55.3967 205.506 57.3107 204.076 59.012C202.684 60.7133 200.924 62.0473 198.798 63.014C196.671 63.9807 194.293 64.464 191.664 64.464C188.493 64.464 185.67 63.7873 183.196 62.434C180.721 61.0807 178.788 59.1473 177.396 56.634C176.004 54.1207 175.308 51.182 175.308 47.818C175.308 44.454 175.984 41.5153 177.338 39.002C178.73 36.4887 180.663 34.5553 183.138 33.202C185.612 31.8487 188.454 31.172 191.664 31.172C194.796 31.172 197.58 31.8293 200.016 33.144C202.452 34.4587 204.346 36.334 205.7 38.77C207.092 41.206 207.788 44.048 207.788 47.296ZM197.638 44.686C197.638 42.9847 197.058 41.6313 195.898 40.626C194.738 39.6207 193.288 39.118 191.548 39.118C189.885 39.118 188.474 39.6013 187.314 40.568C186.192 41.5347 185.496 42.9073 185.226 44.686H197.638ZM222.938 37.03C224.098 35.2513 225.548 33.8593 227.288 32.854C229.028 31.81 230.961 31.288 233.088 31.288V41.786H230.362C227.887 41.786 226.031 42.3273 224.794 43.41C223.556 44.454 222.938 46.31 222.938 48.978V64H213.02V31.636H222.938V37.03ZM269.786 31.636V64H259.868V59.592C258.863 61.0227 257.49 62.1827 255.75 63.072C254.049 63.9227 252.154 64.348 250.066 64.348C247.592 64.348 245.407 63.8067 243.512 62.724C241.618 61.6027 240.148 59.998 239.104 57.91C238.06 55.822 237.538 53.3667 237.538 50.544V31.636H247.398V49.21C247.398 51.3753 247.959 53.0573 249.08 54.256C250.202 55.4547 251.71 56.054 253.604 56.054C255.538 56.054 257.065 55.4547 258.186 54.256C259.308 53.0573 259.868 51.3753 259.868 49.21V31.636H269.786ZM318.206 31.288C322.228 31.288 325.418 32.506 327.776 34.942C330.174 37.378 331.372 40.7613 331.372 45.092V64H321.512V46.426C321.512 44.338 320.952 42.7333 319.83 41.612C318.748 40.452 317.24 39.872 315.306 39.872C313.373 39.872 311.846 40.452 310.724 41.612C309.642 42.7333 309.1 44.338 309.1 46.426V64H299.24V46.426C299.24 44.338 298.68 42.7333 297.558 41.612C296.476 40.452 294.968 39.872 293.034 39.872C291.101 39.872 289.574 40.452 288.452 41.612C287.37 42.7333 286.828 44.338 286.828 46.426V64H276.91V31.636H286.828V35.696C287.834 34.3427 289.148 33.2793 290.772 32.506C292.396 31.694 294.233 31.288 296.282 31.288C298.718 31.288 300.884 31.81 302.778 32.854C304.712 33.898 306.22 35.3867 307.302 37.32C308.424 35.5413 309.951 34.0913 311.884 32.97C313.818 31.8487 315.925 31.288 318.206 31.288ZM336.337 47.76C336.337 44.4347 336.956 41.5153 338.193 39.002C339.469 36.4887 341.19 34.5553 343.355 33.202C345.52 31.8487 347.937 31.172 350.605 31.172C352.886 31.172 354.878 31.636 356.579 32.564C358.319 33.492 359.653 34.71 360.581 36.218V31.636H370.499V64H360.581V59.418C359.614 60.926 358.261 62.144 356.521 63.072C354.82 64 352.828 64.464 350.547 64.464C347.918 64.464 345.52 63.7873 343.355 62.434C341.19 61.042 339.469 59.0893 338.193 56.576C336.956 54.024 336.337 51.0853 336.337 47.76ZM360.581 47.818C360.581 45.3433 359.885 43.3907 358.493 41.96C357.14 40.5293 355.477 39.814 353.505 39.814C351.533 39.814 349.851 40.5293 348.459 41.96C347.106 43.352 346.429 45.2853 346.429 47.76C346.429 50.2347 347.106 52.2067 348.459 53.676C349.851 55.1067 351.533 55.822 353.505 55.822C355.477 55.822 357.14 55.1067 358.493 53.676C359.885 52.2453 360.581 50.2927 360.581 47.818ZM397.568 31.288C401.28 31.288 404.257 32.5253 406.5 35C408.743 37.436 409.864 40.8 409.864 45.092V64H400.004V46.426C400.004 44.2607 399.443 42.5787 398.322 41.38C397.201 40.1813 395.693 39.582 393.798 39.582C391.903 39.582 390.395 40.1813 389.274 41.38C388.153 42.5787 387.592 44.2607 387.592 46.426V64H377.674V21.08H387.592V35.986C388.597 34.5553 389.97 33.4147 391.71 32.564C393.45 31.7133 395.403 31.288 397.568 31.288Z" fill="black"/>
<path d="M421.396 64.464C419.656 64.464 418.225 63.9613 417.104 62.956C416.021 61.912 415.48 60.636 415.48 59.128C415.48 57.5813 416.021 56.286 417.104 55.242C418.225 54.198 419.656 53.676 421.396 53.676C423.097 53.676 424.489 54.198 425.572 55.242C426.693 56.286 427.254 57.5813 427.254 59.128C427.254 60.636 426.693 61.912 425.572 62.956C424.489 63.9613 423.097 64.464 421.396 64.464Z" fill="#79BBF2"/>
</svg>
